<svg width="31" height="31" viewBox="0 0 31 31" fill="none" xmlns="http://www.w3.org/2000/svg">
    <path d="M17.5674 27.2233L24.6202 23.1513C25.3731 22.7166 25.7489 22.4992 26.0226 22.1952C26.2649 21.9261 26.448 21.6092 26.5599 21.2649C26.6861 20.8766 26.6861 20.4428 26.6861 19.5775V11.4218C26.6861 10.5565 26.6861 10.1227 26.5599 9.73445C26.448 9.39014 26.2649 9.07299 26.0226 8.80396C25.75 8.50121 25.3752 8.28477 24.6287 7.85385L17.5662 3.77626C16.8132 3.34158 16.4376 3.12467 16.0373 3.03961C15.6833 2.96433 15.3171 2.96433 14.9631 3.03961C14.5628 3.12468 14.1859 3.34158 13.433 3.77626L6.37881 7.84898C5.6268 8.28315 5.25108 8.50007 4.97747 8.80396C4.73522 9.07299 4.55228 9.39014 4.44041 9.73445C4.31397 10.1236 4.31396 10.5585 4.31396 11.4279V19.5718C4.31396 20.4411 4.31397 20.8757 4.44041 21.2649C4.55228 21.6092 4.73522 21.9261 4.97747 22.1952C5.25125 22.4992 5.62724 22.7166 6.38013 23.1513L13.433 27.2233C14.1859 27.6579 14.5628 27.8749 14.9631 27.96C15.3171 28.0352 15.6833 28.0352 16.0373 27.96C16.4376 27.8749 16.8145 27.6579 17.5674 27.2233Z" stroke="#1F2937" stroke-width="2" stroke-linecap="round" stroke-linejoin="round"/>
    <path d="M11.625 15.4998C11.625 17.6398 13.3598 19.3748 15.5 19.3748C17.6402 19.3748 19.375 17.6398 19.375 15.4998C19.375 13.3596 17.6402 11.6248 15.5 11.6248C13.3598 11.6248 11.625 13.3596 11.625 15.4998Z" stroke="#1F2937" stroke-width="2" stroke-linecap="round" stroke-linejoin="round"/>
</svg>
